<svg width="48" height="48" viewBox="0 0 48 48" fill="none" xmlns="http://www.w3.org/2000/svg">
<g filter="url(#filter0_b_9721_179)">
<rect x="0.5" y="0.5" width="47" height="47" rx="23.5" stroke="white" stroke-opacity="0.5"/>
<path fill-rule="evenodd" clip-rule="evenodd" d="M17.2929 17.2929C17.6834 16.9024 18.3166 16.9024 18.7071 17.2929L24 22.5858L29.2929 17.2929C29.6834 16.9024 30.3166 16.9024 30.7071 17.2929C31.0976 17.6834 31.0976 18.3166 30.7071 18.7071L25.4142 24L30.7071 29.2929C31.0976 29.6834 31.0976 30.3166 30.7071 30.7071C30.3166 31.0976 29.6834 31.0976 29.2929 30.7071L24 25.4142L18.7071 30.7071C18.3166 31.0976 17.6834 31.0976 17.2929 30.7071C16.9024 30.3166 16.9024 29.6834 17.2929 29.2929L22.5858 24L17.2929 18.7071C16.9024 18.3166 16.9024 17.6834 17.2929 17.2929Z" fill="white"/>
</g>
<defs>
<filter id="filter0_b_9721_179" x="-20" y="-20" width="88" height="88" filterUnits="userSpaceOnUse" color-interpolation-filters="sRGB">
<feFlood flood-opacity="0" result="BackgroundImageFix"/>
<feGaussianBlur in="BackgroundImageFix" stdDeviation="10"/>
<feComposite in2="SourceAlpha" operator="in" result="effect1_backgroundBlur_9721_179"/>
<feBlend mode="normal" in="SourceGraphic" in2="effect1_backgroundBlur_9721_179" result="shape"/>
</filter>
</defs>
</svg>
