<svg width="8" height="6" viewBox="0 0 8 6" fill="none" xmlns="http://www.w3.org/2000/svg">
<path d="M7.48031 1.15079C7.48031 1.15079 7.40648 0.627973 7.17924 0.398403C6.89151 0.096269 6.56977 0.094788 6.42222 0.077015C5.36564 -1.49012e-08 3.77925 0 3.77925 0H3.7763C3.7763 0 2.18993 -1.49012e-08 1.13333 0.077015C0.985764 0.094788 0.664062 0.096269 0.376302 0.398403C0.149046 0.627973 0.076736 1.15079 0.076736 1.15079C0.076736 1.15079 0 1.76543 0 2.3786V2.95325C0 3.56642 0.075261 4.18106 0.075261 4.18106C0.075261 4.18106 0.149046 4.70386 0.374827 4.93342C0.662587 5.2356 1.04036 5.2252 1.20859 5.25778C1.81362 5.31555 3.77777 5.33333 3.77777 5.33333C3.77777 5.33333 5.36564 5.33035 6.42222 5.25484C6.56977 5.23706 6.89151 5.2356 7.17924 4.93342C7.40648 4.70386 7.48031 4.18106 7.48031 4.18106C7.48031 4.18106 7.55555 3.56789 7.55555 2.95325V2.3786C7.55555 1.76543 7.48031 1.15079 7.48031 1.15079ZM2.99713 3.65083V1.51957L5.038 2.58891L2.99713 3.65083Z" fill="white"/>
</svg>
