<svg width="7" height="10" viewBox="0 0 7 10" fill="none" xmlns="http://www.w3.org/2000/svg">
<path d="M3.66666 4.11111H5.66666L5.44444 5H3.66666V9H2.77778V5H1V4.11111H2.77778V3.27911C2.77778 2.48667 2.86044 2.19911 3.01511 1.90933C3.16667 1.62302 3.4008 1.38889 3.68711 1.23733C3.97689 1.08267 4.26444 1 5.05689 1C5.28889 1 5.49244 1.02222 5.66666 1.06667V1.88889H5.05689C4.46844 1.88889 4.28933 1.92355 4.10666 2.02133C3.97155 2.09333 3.87111 2.19378 3.79911 2.32889C3.70133 2.51155 3.66666 2.69067 3.66666 3.27911V4.11111Z" fill="white" stroke="white" stroke-width="0.8"/>
</svg>
