<svg width="9" height="9" viewBox="0 0 9 9" fill="none" xmlns="http://www.w3.org/2000/svg">
<path d="M6.23188 1.40563C6.13546 1.40563 6.04121 1.43421 5.96105 1.48779C5.88088 1.54135 5.81837 1.61749 5.78148 1.70656C5.7446 1.79565 5.73495 1.89367 5.75375 1.98823C5.77255 2.0828 5.81897 2.16966 5.88716 2.23784C5.95536 2.30602 6.04219 2.35245 6.13676 2.37126C6.23134 2.39007 6.32938 2.38041 6.41843 2.34352C6.50753 2.30662 6.58364 2.24414 6.63721 2.16396C6.69078 2.0838 6.71938 1.98954 6.71938 1.89313C6.71938 1.76383 6.66803 1.63984 6.5766 1.54841C6.48516 1.45699 6.36117 1.40563 6.23188 1.40563ZM8.10063 2.38875C8.09272 2.05168 8.02962 1.71819 7.91375 1.40156C7.81046 1.13065 7.64969 0.88533 7.4425 0.6825C7.24133 0.474267 6.99547 0.314508 6.72344 0.215312C6.40765 0.095941 6.07377 0.031366 5.73625 0.024375C5.30563 2.23517e-08 5.1675 0 4.0625 0C2.9575 0 2.81938 2.23517e-08 2.38875 0.024375C2.05122 0.031366 1.71736 0.095941 1.40157 0.215312C1.13006 0.315515 0.884376 0.475134 0.682496 0.6825C0.474266 0.88366 0.314506 1.12955 0.215312 1.40156C0.09594 1.71736 0.031366 2.05122 0.024375 2.38875C2.23517e-08 2.81938 0 2.9575 0 4.0625C0 5.1675 2.23517e-08 5.30563 0.024375 5.73625C0.031366 6.07376 0.09594 6.40765 0.215312 6.72344C0.314506 6.99546 0.474266 7.24133 0.682496 7.4425C0.884376 7.64985 1.13006 7.80948 1.40157 7.90969C1.71736 8.02907 2.05122 8.09364 2.38875 8.10063C2.81938 8.125 2.9575 8.125 4.0625 8.125C5.1675 8.125 5.30563 8.125 5.73625 8.10063C6.07377 8.09364 6.40765 8.02907 6.72344 7.90969C6.99547 7.81051 7.24133 7.65072 7.4425 7.4425C7.65061 7.2404 7.81154 6.99487 7.91375 6.72344C8.02962 6.40678 8.09272 6.07333 8.10063 5.73625C8.10063 5.30563 8.125 5.1675 8.125 4.0625C8.125 2.9575 8.125 2.81938 8.10063 2.38875ZM7.36938 5.6875C7.3664 5.94539 7.31971 6.20089 7.23125 6.44313C7.16636 6.61993 7.0622 6.77966 6.92657 6.91031C6.79478 7.04459 6.63537 7.14854 6.45938 7.215C6.21715 7.30345 5.96164 7.35015 5.70375 7.35313C5.2975 7.37344 5.14719 7.3775 4.07875 7.3775C3.01032 7.3775 2.86 7.3775 2.45375 7.35313C2.18599 7.35816 1.91937 7.31689 1.66563 7.23125C1.49735 7.16143 1.34524 7.0577 1.21875 6.92656C1.08392 6.79608 0.981026 6.63618 0.918126 6.45938C0.818936 6.21368 0.763926 5.95238 0.755626 5.6875C0.755626 5.28125 0.731246 5.13094 0.731246 4.0625C0.731246 2.99406 0.731246 2.84375 0.755626 2.4375C0.757446 2.17387 0.805576 1.9126 0.897816 1.66563C0.969336 1.49415 1.07911 1.3413 1.21875 1.21875C1.34218 1.07907 1.49472 0.96813 1.66563 0.89375C1.91326 0.80439 2.17425 0.75769 2.4375 0.75563C2.84375 0.75563 2.99407 0.73125 4.0625 0.73125C5.13094 0.73125 5.28125 0.73125 5.6875 0.75563C5.94539 0.75858 6.2009 0.80529 6.44313 0.89375C6.62773 0.96227 6.79343 1.07366 6.92657 1.21875C7.05971 1.34354 7.16371 1.49611 7.23125 1.66563C7.32155 1.913 7.3683 2.17416 7.36938 2.4375C7.38969 2.84375 7.39375 2.99406 7.39375 4.0625C7.39375 5.13094 7.38969 5.28125 7.36938 5.6875ZM4.0625 1.97844C3.65049 1.97924 3.24796 2.10215 2.90577 2.33164C2.56358 2.56112 2.29709 2.88689 2.13998 3.26777C1.98287 3.64866 1.94217 4.06756 2.02305 4.47157C2.10392 4.87556 2.30273 5.24653 2.59435 5.53757C2.88597 5.82866 3.25732 6.02675 3.66148 6.1068C4.06563 6.18692 4.48446 6.14537 4.86504 5.98753C5.24561 5.82969 5.57088 5.56254 5.79968 5.21993C6.02848 4.87729 6.15063 4.47451 6.15063 4.0625C6.15117 3.78832 6.09749 3.51675 5.99268 3.26339C5.88792 3.01003 5.73403 2.77989 5.54001 2.58621C5.34593 2.39253 5.11548 2.23912 4.86192 2.13482C4.60836 2.03051 4.33668 1.97737 4.0625 1.97844ZM4.0625 5.41531C3.79494 5.41531 3.53339 5.33596 3.31092 5.18733C3.08845 5.03868 2.91506 4.82739 2.81267 4.5802C2.71028 4.333 2.68349 4.061 2.73569 3.79858C2.78789 3.53616 2.91673 3.29511 3.10592 3.10592C3.29511 2.91672 3.53616 2.78788 3.79858 2.73568C4.061 2.68348 4.33301 2.71027 4.5802 2.81266C4.8274 2.91506 5.03868 3.08845 5.18733 3.31092C5.33596 3.53339 5.41532 3.79494 5.41532 4.0625C5.41532 4.24016 5.38032 4.41607 5.31235 4.5802C5.24437 4.74433 5.14471 4.89347 5.01909 5.01908C4.89347 5.1447 4.74433 5.24436 4.5802 5.31234C4.41607 5.38032 4.24016 5.41531 4.0625 5.41531Z" fill="white"/>
</svg>
