<svg width="28" height="21" viewBox="0 0 28 21" fill="none" xmlns="http://www.w3.org/2000/svg">
<path d="M0 10.4863C0 4.45577 4.66058 0 10.9824 0C17.3042 0 21.9648 4.42846 21.9648 10.4863C21.9648 16.5441 17.3042 20.9726 10.9824 20.9726C4.66058 20.9726 0 16.5168 0 10.4863ZM12.9668 7.88293C9.68981 4.60596 5.55719 4.02339 3.17684 6.40374C0.796485 8.7841 0.67815 13.1716 3.95512 16.4486C7.23209 19.7255 12.0656 20.0532 14.4505 17.6729C16.8309 15.2925 16.2483 11.1599 12.9713 7.88293H12.9668Z" fill="#FFEB72"/>
<path d="M27.1644 4.11523V7.44682C26.3679 7.75176 26.022 7.8792 25.2301 8.46632C24.2743 9.18088 23.0773 9.96826 21.8029 13.136C21.8029 14.1555 21.8211 17.1366 21.8302 19.1028C21.8348 20.1132 21.0201 20.9325 20.0097 20.9325H11.9766L18.1618 18.2016V5.12563H20.5422L21.63 7.39675C22.6768 5.76737 24.5701 4.11523 27.1644 4.11523Z" fill="#FFEB72"/>
<path d="M8.66418 3.79124C9.1669 3.79124 9.57444 3.3837 9.57444 2.88097C9.57444 2.37824 9.1669 1.9707 8.66418 1.9707C8.16145 1.9707 7.75391 2.37824 7.75391 2.88097C7.75391 3.3837 8.16145 3.79124 8.66418 3.79124Z" fill="black"/>
</svg>
