<svg width="85" height="40" viewBox="0 0 85 40" fill="none" xmlns="http://www.w3.org/2000/svg">
<g id="Layer 2">
<g id="Group">
<path id="Vector" d="M0 17.4758C0 7.42456 7.76788 -0.00195312 18.3046 -0.00195312C28.8413 -0.00195312 36.6091 7.37905 36.6091 17.4758C36.6091 27.5725 28.8413 34.9535 18.3046 34.9535C7.76788 34.9535 0 27.527 0 17.4758ZM21.612 13.1367C16.1502 7.67489 9.26228 6.70391 5.2949 10.6713C1.32752 14.6387 1.13029 21.9514 6.59207 27.4132C12.0539 32.875 20.11 33.4212 24.085 29.4538C28.0523 25.4864 27.0814 18.5985 21.6196 13.1367H21.612Z" fill="#231F20"/>
<path id="Vector_2" d="M45.2748 6.85742V12.4102C43.9473 12.9185 43.3708 13.1309 42.0508 14.1095C40.4578 15.3004 38.4627 16.6128 36.3387 21.8925C36.3387 23.5917 36.3691 28.5604 36.3842 31.8375C36.3918 33.5216 35.034 34.887 33.3499 34.887H19.9609L30.2701 30.3355V8.54147H34.2374L36.0505 12.3268C37.7952 9.61107 40.9509 6.85742 45.2748 6.85742Z" fill="#231F20"/>
<path id="Vector_3" d="M38.5508 27.1486C38.5508 19.6462 44.1795 14.3438 52.1066 14.3438C56.9843 14.3438 59.7152 15.5044 62.1427 18.5994C62.1427 18.5994 61.642 18.8194 61.0048 19.3049C60.6028 19.6083 59.8138 20.2759 59.4194 20.8069C58.8125 21.6261 58.638 22.013 58.638 22.013C56.6354 19.5324 54.5493 19.3125 52.0687 19.3125C47.7524 19.3125 44.4677 22.3164 44.4677 27.141C44.4677 31.9656 47.7524 34.9772 52.0687 34.9772C54.5569 34.9772 57.4015 33.3462 58.9035 30.9491C58.9035 30.9491 59.1463 31.3739 59.6242 31.9884C60.1021 32.6028 61.0276 33.369 61.4524 33.6876C61.8772 34.0062 62.6585 34.4082 62.6585 34.4082C60.8379 37.3743 56.9843 39.999 52.1066 39.999C44.1795 39.999 38.5508 34.651 38.5508 27.1486Z" fill="#231F20"/>
<path id="Vector_4" d="M84.1599 18.6142V33.8086H78.4326V30.6529C76.9761 32.8831 74.1618 34.15 70.2778 34.15C64.3533 34.15 60.6211 30.8957 60.6211 26.3821C60.6211 21.8685 63.534 18.6597 71.4005 18.6597H78.0988V18.2729C78.0988 14.7303 75.9596 12.6442 71.6433 12.6442C68.7303 12.6442 65.7188 13.6152 63.7768 15.2158L61.3948 10.8008C64.1637 8.66162 68.1917 7.59961 72.3639 7.59961C79.836 7.59961 84.1599 11.1422 84.1599 18.6218V18.6142ZM77.3933 24.9635V21.952H71.1274C67.0008 21.952 65.8856 23.5071 65.8856 25.3959C65.8856 27.5807 67.729 28.9916 70.8392 28.9916C73.9494 28.9916 76.3768 27.6338 77.3933 24.9635Z" fill="#231F20"/>
<path id="Vector_5" d="M14.439 6.31753C15.2769 6.31753 15.9562 5.63827 15.9562 4.80037C15.9562 3.96246 15.2769 3.2832 14.439 3.2832C13.6011 3.2832 12.9219 3.96246 12.9219 4.80037C12.9219 5.63827 13.6011 6.31753 14.439 6.31753Z" fill="white"/>
</g>
</g>
</svg>
