<svg width="50" height="24" viewBox="0 0 50 24" fill="none" xmlns="http://www.w3.org/2000/svg">
<g id="Layer 2">
<g id="Group">
<path id="Vector" d="M0 10.4662C0 4.44724 4.60231 0 10.8451 0C17.0879 0 21.6902 4.41998 21.6902 10.4662C21.6902 16.5125 17.0879 20.9325 10.8451 20.9325C4.60231 20.9325 0 16.4852 0 10.4662ZM12.8047 7.86784C9.56867 4.59715 5.48772 4.01569 3.13712 6.39149C0.786528 8.76728 0.669672 13.1464 3.90567 16.4171C7.14167 19.6878 11.9148 20.0148 14.2699 17.639C16.6205 15.2633 16.0452 11.1385 12.8092 7.86784H12.8047Z" fill="white"/>
<path id="Vector_2" d="M26.8261 4.10742V7.43263C26.0396 7.73699 25.698 7.86418 24.9159 8.45018C23.9721 9.16337 22.7901 9.94925 21.5316 13.1109C21.5316 14.1285 21.5496 17.1039 21.5586 19.0663C21.5631 20.0748 20.7586 20.8925 19.7608 20.8925H11.8281L17.9361 18.1669V5.11589H20.2867L21.3608 7.38266C22.3946 5.7564 24.2643 4.10742 26.8261 4.10742Z" fill="white"/>
<path id="Vector_3" d="M22.8398 16.2578C22.8398 11.7651 26.1747 8.58984 30.8714 8.58984C33.7613 8.58984 35.3793 9.28487 36.8176 11.1383C36.8176 11.1383 36.5209 11.27 36.1434 11.5607C35.9052 11.7424 35.4378 12.1422 35.2041 12.4602C34.8445 12.9508 34.7411 13.1824 34.7411 13.1824C33.5546 11.697 32.3186 11.5653 30.8489 11.5653C28.2916 11.5653 26.3455 13.3642 26.3455 16.2533C26.3455 19.1424 28.2916 20.9458 30.8489 20.9458C32.3231 20.9458 34.0085 19.9691 34.8984 18.5337C34.8984 18.5337 35.0423 18.7881 35.3254 19.156C35.6086 19.524 36.1569 19.9828 36.4086 20.1736C36.6603 20.3644 37.1232 20.6051 37.1232 20.6051C36.0445 22.3813 33.7613 23.953 30.8714 23.953C26.1747 23.953 22.8398 20.7505 22.8398 16.2578Z" fill="white"/>
<path id="Vector_4" d="M49.8603 11.1467V20.2456H46.467V18.3558C45.6041 19.6914 43.9366 20.45 41.6355 20.45C38.1253 20.45 35.9141 18.5012 35.9141 15.7983C35.9141 13.0955 37.6399 11.1739 42.3007 11.1739H46.2693V10.9423C46.2693 8.82086 45.0018 7.57163 42.4445 7.57163C40.7186 7.57163 38.9343 8.15309 37.7837 9.11159L36.3725 6.46777C38.013 5.18675 40.3995 4.55078 42.8715 4.55078C47.2985 4.55078 49.8603 6.67219 49.8603 11.1512V11.1467ZM45.8513 14.9489V13.1454H42.1389C39.6939 13.1454 39.0332 14.0767 39.0332 15.2078C39.0332 16.5161 40.1254 17.361 41.9681 17.361C43.8108 17.361 45.249 16.5479 45.8513 14.9489Z" fill="white"/>
<path id="Vector_5" d="M8.55905 3.78385C9.05549 3.78385 9.45793 3.37709 9.45793 2.87532C9.45793 2.37356 9.05549 1.9668 8.55905 1.9668C8.0626 1.9668 7.66016 2.37356 7.66016 2.87532C7.66016 3.37709 8.0626 3.78385 8.55905 3.78385Z" fill="black"/>
</g>
</g>
</svg>
